<?xml version="1.0" standalone="no"?>
<!DOCTYPE svg PUBLIC "-//W3C//DTD SVG 20010904//EN"
 "http://www.w3.org/TR/2001/REC-SVG-20010904/DTD/svg10.dtd">
<svg version="1.0" xmlns="http://www.w3.org/2000/svg"
 width="629.000000pt" height="367.000000pt" viewBox="0 0 629.000000 367.000000"
 preserveAspectRatio="xMidYMid meet">

<g transform="translate(0.000000,367.000000) scale(0.100000,-0.100000)"
fill="#000000" stroke="none">
<path d="M3495 3585 c-16 -8 -58 -14 -93 -13 -111 1 -141 -42 -104 -149 41
-117 26 -167 -66 -220 -65 -36 -81 -52 -104 -97 -33 -64 -22 -125 40 -226 28
-46 59 -105 68 -132 l16 -48 229 0 229 0 0 -102 c1 -152 21 -101 32 79 8 128
13 158 50 271 35 109 41 140 42 217 0 165 -64 301 -187 394 -59 45 -97 51
-152 26z"/>
<path d="M820 2730 l0 -90 75 0 75 0 0 29 c0 28 -3 30 -42 33 -40 3 -43 5 -43
33 0 28 3 30 43 33 37 3 42 6 42 28 0 23 -2 24 -75 24 l-75 0 0 -90z"/>
<path d="M1000 2765 l0 -55 40 0 c22 0 40 -4 40 -10 0 -5 -18 -10 -40 -10 -36
0 -40 -2 -40 -25 0 -24 2 -25 75 -25 l75 0 0 60 0 60 -47 2 -48 1 45 6 c37 5
46 10 48 29 3 21 0 22 -72 22 l-76 0 0 -55z"/>
<path d="M1180 2765 l0 -55 40 0 c22 0 40 -4 40 -10 0 -5 -18 -10 -40 -10 -36
0 -40 -2 -40 -25 0 -24 2 -25 70 -25 l70 0 0 59 0 60 -42 4 -43 4 43 1 c38 2
42 5 42 27 0 24 -2 25 -70 25 l-70 0 0 -55z"/>
<path d="M2055 2628 c-73 -18 -88 -30 -103 -83 -8 -28 -25 -65 -39 -83 -43
-58 -53 -92 -37 -131 22 -51 18 -95 -12 -130 -44 -52 -10 -80 56 -46 29 15 30
15 37 -12 9 -36 6 -58 -17 -110 -22 -50 -24 -48 94 -69 91 -16 103 -23 87 -53
-14 -26 -36 -26 -101 -1 -92 36 -90 40 -84 -112 7 -165 4 -171 -85 -172 l-62
-1 6 36 c12 68 7 118 -14 162 -11 24 -21 48 -21 54 0 6 -12 8 -27 5 -33 -6
-153 -70 -153 -82 0 -7 -89 -160 -94 -160 -2 0 20 269 29 346 5 42 10 53 28
58 43 11 58 6 79 -30 19 -32 23 -35 33 -20 11 15 14 14 37 -4 14 -11 29 -31
32 -45 8 -31 20 -33 23 -2 0 12 4 41 8 64 11 62 0 88 -52 128 -53 41 -65 43
-91 15 -10 -11 -33 -25 -50 -30 -39 -11 -38 -20 -17 205 8 88 15 175 15 193
l0 32 -480 0 c-264 0 -480 -3 -480 -7 0 -5 18 -227 42 -494 l42 -486 199 -55
198 -55 92 26 c89 25 91 26 54 32 -44 7 -90 38 -95 63 -2 9 4 29 13 43 l17 25
53 -52 54 -53 100 7 c78 5 101 3 101 -6 0 -7 3 -24 7 -37 6 -22 4 -23 -25 -19
-31 4 -32 3 -54 -61 -19 -54 -22 -84 -20 -166 1 -55 -2 -171 -8 -258 -10 -170
-7 -193 36 -238 33 -34 64 -135 71 -229 5 -73 4 -76 -25 -103 -20 -19 -45 -31
-78 -35 -62 -9 -66 -33 -9 -47 22 -6 51 -16 63 -24 19 -10 56 -11 163 -6 l139
8 0 34 c0 19 -7 48 -16 65 -8 16 -17 53 -19 82 -1 28 -26 123 -55 210 l-53
158 13 68 c8 40 10 94 7 128 -6 56 -5 61 18 76 26 17 45 70 45 129 0 28 7 44
25 61 28 26 47 68 65 144 6 28 17 52 23 52 62 1 194 22 211 34 23 14 64 113
87 210 l12 49 74 -6 c41 -3 77 -7 79 -10 2 -2 -7 -29 -20 -59 -13 -30 -30 -74
-36 -98 -6 -24 -25 -66 -41 -95 -16 -28 -29 -54 -29 -57 0 -12 121 -58 154
-58 39 0 48 15 15 25 -11 4 -27 22 -36 41 -16 33 -16 38 6 107 13 39 41 107
63 151 22 43 37 84 34 92 -8 20 -62 51 -132 74 l-61 21 -7 129 c-4 72 -9 137
-12 145 -5 12 4 15 44 15 102 0 142 23 127 71 -6 17 -13 20 -35 16 -30 -6 -96
8 -105 23 -3 4 8 14 24 21 28 13 30 16 24 59 -3 25 -7 47 -9 49 -4 5 -108 -59
-116 -73 -11 -17 -42 7 -46 36 -2 13 2 36 7 51 9 24 16 27 59 27 26 0 56 6 66
13 17 13 17 15 2 45 -15 29 -63 64 -83 61 -4 -1 -26 -6 -48 -11z m-668 -315
c-3 -27 -16 -160 -27 -298 -12 -137 -25 -259 -29 -269 -6 -15 -37 -28 -127
-53 l-119 -33 -127 36 -127 36 -6 57 c-3 31 -8 73 -10 94 l-5 37 65 0 65 0 0
-37 c0 -21 4 -43 8 -49 4 -6 34 -18 67 -27 56 -15 64 -15 122 1 34 10 65 21
69 24 4 4 10 39 13 78 l7 70 -207 0 c-233 0 -219 -5 -219 81 l0 49 220 0 220
0 0 38 c0 20 3 47 6 60 l6 22 -235 0 -235 0 -4 60 -3 60 155 3 c85 1 224 4
309 5 l154 2 -6 -47z"/>
<path d="M4020 2545 c0 -73 1 -75 25 -75 20 0 25 5 25 25 0 20 5 25 25 25 20
0 25 -5 25 -25 0 -20 5 -25 25 -25 24 0 25 2 25 75 0 73 -1 75 -25 75 -20 0
-25 -5 -25 -25 0 -20 -5 -25 -25 -25 -20 0 -25 5 -25 25 0 20 -5 25 -25 25
-24 0 -25 -2 -25 -75z"/>
<path d="M4192 2598 c2 -15 11 -24 26 -26 19 -3 22 -9 22 -53 0 -46 2 -49 25
-49 23 0 25 3 25 50 0 43 3 50 20 50 15 0 20 7 20 25 0 24 -2 25 -71 25 -67 0
-70 -1 -67 -22z"/>
<path d="M4360 2545 c0 -68 2 -75 20 -75 16 0 20 7 20 38 l1 37 19 -24 20 -23
20 23 19 24 1 -37 c0 -34 3 -38 25 -38 24 0 25 2 25 75 l0 75 -28 0 c-19 0
-32 -8 -43 -27 l-17 -26 -17 26 c-11 17 -26 27 -41 27 -23 0 -24 -3 -24 -75z"/>
<path d="M4550 2545 l0 -75 60 0 c57 0 60 1 60 25 0 22 -4 25 -35 25 l-35 0 0
50 c0 47 -2 50 -25 50 -24 0 -25 -2 -25 -75z"/>
<path d="M3950 2398 c0 -2 11 -126 25 -277 14 -151 25 -283 25 -294 0 -18 -7
-14 -44 22 -25 24 -47 55 -51 70 -10 39 -24 51 -61 51 -19 0 -34 -2 -34 -5 0
-3 11 -27 24 -53 16 -32 26 -73 30 -127 l7 -80 -40 73 c-21 40 -60 95 -85 122
-26 27 -49 63 -52 79 l-6 30 -69 -69 c-42 -41 -69 -76 -69 -89 0 -20 -5 -19
-82 20 -102 51 -118 64 -118 100 0 52 66 66 110 24 l26 -25 39 27 c22 14 42
28 44 30 9 7 -55 65 -88 79 -135 57 -277 -52 -241 -185 16 -60 45 -88 138
-133 92 -43 111 -60 112 -95 0 -30 -37 -53 -87 -53 -33 0 -50 7 -79 32 l-36
32 -44 -24 c-24 -14 -44 -27 -44 -29 0 -18 58 -73 97 -92 60 -29 171 -32 220
-6 39 21 73 62 80 99 3 16 9 28 13 28 16 0 20 -34 20 -156 0 -98 3 -124 14
-124 16 0 26 -69 26 -187 0 -77 -2 -84 -30 -117 -45 -51 -113 -220 -125 -311
-2 -16 -6 -37 -10 -46 -12 -32 116 -76 167 -57 14 6 11 12 -18 43 -39 42 -44
82 -15 123 32 47 117 224 157 327 21 55 41 104 45 108 4 5 21 -11 38 -36 17
-25 48 -60 69 -79 34 -29 40 -40 46 -90 3 -32 17 -92 30 -135 17 -56 23 -96
21 -139 l-3 -62 53 -7 c29 -3 75 -12 103 -19 28 -8 53 -11 56 -8 15 14 3 33
-28 46 -51 21 -80 76 -95 176 -36 259 -39 269 -91 373 -27 56 -54 126 -60 155
-5 30 -19 66 -30 82 -11 15 -20 38 -20 49 0 12 -4 21 -9 21 -10 0 -33 139 -25
152 3 4 22 -3 42 -17 20 -14 44 -25 53 -25 17 0 29 -43 29 -105 l0 -30 158
-44 c86 -25 164 -44 172 -43 17 0 313 82 318 87 5 4 71 737 72 783 l0 32 -395
0 c-217 0 -395 -1 -395 -2z m720 -73 c0 -48 -63 -681 -68 -686 -7 -7 -224 -69
-242 -69 -5 0 -10 20 -10 44 l0 45 -52 15 c-29 8 -74 20 -101 27 -26 6 -50 16
-54 22 -4 6 -9 44 -13 84 l-6 73 52 0 52 0 7 -40 c6 -36 10 -41 48 -50 23 -6
48 -13 55 -15 9 -3 12 16 12 75 l0 80 -115 0 c-63 0 -115 3 -115 8 -1 4 -7 70
-14 147 -8 77 -12 143 -9 148 2 4 60 7 129 7 l124 0 0 45 0 45 160 0 c88 0
160 -2 160 -5z"/>
<path d="M4210 2111 c0 -10 3 -33 6 -50 6 -31 7 -31 70 -31 l64 0 0 50 0 50
-70 0 c-62 0 -70 -2 -70 -19z"/>
<path d="M3716 2227 l-59 -29 6 -58 c6 -56 24 -110 36 -110 4 0 12 14 18 30 8
20 18 30 33 30 11 0 33 6 48 14 16 8 35 10 47 6 21 -8 55 4 55 19 0 16 -90
119 -108 123 -9 3 -43 -9 -76 -25z"/>
<path d="M3010 1887 c0 -160 -3 -226 -12 -235 -7 -7 -29 -12 -49 -12 -29 0
-42 6 -57 27 l-20 27 -37 -19 c-57 -31 -60 -39 -25 -78 84 -96 252 -81 300 26
17 37 20 67 20 265 l0 222 -60 0 -60 0 0 -223z"/>
<path d="M104 754 c-42 -72 -40 -84 20 -98 15 -4 50 -29 76 -56 27 -28 51 -50
54 -50 16 0 1 35 -40 97 -26 37 -55 88 -64 112 l-17 44 -29 -49z"/>
<path d="M386 770 c-3 -17 -27 -63 -54 -103 -27 -39 -51 -80 -55 -89 -12 -32
17 -19 63 27 27 28 60 50 82 56 26 6 38 15 38 27 0 17 -54 112 -64 112 -2 0
-6 -14 -10 -30z"/>
</g>
</svg>
